<?xml version="1.0" encoding="utf-8"?>
<!-- Generator: Adobe Illustrator 24.0.2, SVG Export Plug-In . SVG Version: 6.00 Build 0)  -->
<svg version="1.1" id="Logo" xmlns="http://www.w3.org/2000/svg" xmlns:xlink="http://www.w3.org/1999/xlink" x="0px" y="0px"
	 viewBox="0 0 467.19 613.95" style="enable-background:new 0 0 467.19 613.95;" xml:space="preserve">
<style type="text/css">
	.st0{fill:#30558F;}
	.st1{fill:#3D6AB3;}
	.st2{fill:#4A89C8;}
	.st3{fill:#D9E1EE;}
</style>
<g>
	<path class="st0" d="M0.07,591.2c0,12.52,10.15,22.68,22.68,22.68h421.7c12.52,0,22.68-10.15,22.68-22.68V169.5
		c0-12.52-10.15-22.68-22.68-22.68H22.75c-12.52,0-22.68,10.15-22.68,22.68V591.2z"/>
</g>
<g id="Cyber_Security">
	<path class="st1" d="M262.47,351.49h-57.74c-7.97,0-14.43-6.46-14.43-14.43v-28.87c0-23.92,19.39-43.3,43.3-43.3
		s43.3,19.39,43.3,43.3v28.87C276.9,345.02,270.44,351.49,262.47,351.49z M219.16,322.62h28.87v-14.43
		c0-7.97-6.46-14.43-14.43-14.43c-7.97,0-14.43,6.46-14.43,14.43V322.62z"/>
	<path class="st2" d="M190.29,322.62h86.61c23.92,0,43.3,19.39,43.3,43.3v86.61c0,23.92-19.39,43.3-43.3,43.3h-86.61
		c-23.92,0-43.3-19.39-43.3-43.3v-86.61C146.99,342,166.38,322.62,190.29,322.62z"/>
	<path class="st1" d="M262.47,394.79c0.1-15.94-12.75-28.95-28.7-29.04c-15.94-0.1-28.95,12.75-29.04,28.7
		c-0.06,10.38,5.45,19.99,14.43,25.17v18.48c0,7.97,6.46,14.43,14.43,14.43c7.97,0,14.43-6.46,14.43-14.43v-18.48
		C256.91,414.49,262.4,405.04,262.47,394.79z"/>
	<path class="st3" d="M233.6,250.44c-7.97,0-14.43-6.46-14.43-14.43v-28.87c0-7.97,6.46-14.43,14.43-14.43
		c7.97,0,14.43,6.46,14.43,14.43v28.87C248.03,243.98,241.57,250.44,233.6,250.44z"/>
	<path class="st3" d="M305.77,322.62c-3.84,0.02-7.52-1.48-10.25-4.19c-5.66-5.61-5.7-14.75-0.08-20.41
		c0.03-0.03,0.06-0.06,0.08-0.08l53.55-53.41v-22.95c0-7.97,6.46-14.43,14.43-14.43c7.97,0,14.43,6.46,14.43,14.43v28.87
		c0.02,3.84-1.48,7.52-4.19,10.25l-57.74,57.74C313.29,321.13,309.61,322.64,305.77,322.62z"/>
	<path class="st3" d="M161.42,322.62c-3.84,0.02-7.52-1.48-10.25-4.19l-57.74-57.74c-2.7-2.72-4.21-6.41-4.19-10.25v-28.87
		c0-7.97,6.46-14.43,14.43-14.43s14.43,6.46,14.43,14.43v22.95l53.55,53.41c5.66,5.61,5.7,14.75,0.08,20.41
		c-0.03,0.03-0.06,0.06-0.08,0.08C168.95,321.13,165.26,322.64,161.42,322.62z"/>
	<path class="st3" d="M363.51,553.57c-7.97,0-14.43-6.46-14.43-14.43v-22.95l-24.68-24.54c-5.66-5.66-5.66-14.84,0-20.5
		c5.66-5.66,14.84-5.66,20.5,0l28.87,28.87c2.7,2.72,4.21,6.41,4.19,10.25v28.87C377.94,547.11,371.48,553.57,363.51,553.57z"/>
	<path class="st3" d="M103.68,553.57c-7.97,0-14.43-6.46-14.43-14.43v-28.87c-0.02-3.84,1.48-7.52,4.19-10.25l28.87-28.87
		c5.66-5.66,14.84-5.66,20.5,0s5.66,14.84,0,20.5l-24.68,24.54v22.95C118.12,547.11,111.66,553.57,103.68,553.57z"/>
	<path class="st3" d="M233.6,568c-7.97,0-14.43-6.46-14.43-14.43V524.7c0-7.97,6.46-14.43,14.43-14.43
		c7.97,0,14.43,6.46,14.43,14.43v28.87C248.03,561.54,241.57,568,233.6,568z"/>
	<path class="st3" d="M406.81,394.79h-57.74c-7.97,0-14.43-6.46-14.43-14.43c0-7.97,6.46-14.43,14.43-14.43h57.74
		c7.97,0,14.43,6.46,14.43,14.43C421.25,388.33,414.78,394.79,406.81,394.79z"/>
	<path class="st3" d="M118.12,394.79H60.38c-7.97,0-14.43-6.46-14.43-14.43c0-7.97,6.46-14.43,14.43-14.43h57.74
		c7.97,0,14.43,6.46,14.43,14.43C132.55,388.33,126.09,394.79,118.12,394.79z"/>
	<path class="st3" d="M363.51,236.01c-15.94,0.07-28.92-12.8-28.99-28.75c-0.07-15.94,12.8-28.92,28.75-28.99
		s28.92,12.8,28.99,28.75c0.03,7.67-2.99,15.04-8.39,20.47C378.47,232.91,371.15,235.98,363.51,236.01z"/>
	<path class="st3" d="M103.68,236.01c-15.94,0.07-28.92-12.8-28.99-28.75c-0.07-15.94,12.8-28.92,28.75-28.99
		s28.92,12.8,28.99,28.75c0.03,7.67-2.99,15.04-8.39,20.47C118.65,232.91,111.33,235.98,103.68,236.01z"/>
	<path class="st3" d="M363.51,582.44c-15.94,0.07-28.92-12.8-28.99-28.75c-0.07-15.94,12.8-28.92,28.75-28.99
		s28.92,12.8,28.99,28.75c0.03,7.67-2.99,15.04-8.39,20.47C378.47,579.34,371.15,582.41,363.51,582.44z"/>
	<path class="st3" d="M103.68,582.44c-15.94,0.07-28.92-12.8-28.99-28.75c-0.07-15.94,12.8-28.92,28.75-28.99
		s28.92,12.8,28.99,28.75c0.03,7.67-2.99,15.04-8.39,20.47C118.65,579.34,111.33,582.41,103.68,582.44z"/>
	<circle class="st3" cx="421.25" cy="380.35" r="28.87"/>
	<circle class="st3" cx="45.95" cy="380.35" r="28.87"/>
	<path class="st3" d="M233.6,596.87c-15.94,0-28.87-12.93-28.87-28.87s12.93-28.87,28.87-28.87s28.87,12.93,28.87,28.87
		S249.54,596.87,233.6,596.87z"/>
	<path class="st3" d="M233.6,221.57c-15.94,0-28.87-12.93-28.87-28.87s12.93-28.87,28.87-28.87s28.87,12.93,28.87,28.87
		S249.54,221.57,233.6,221.57z"/>
</g>
<g id="Warning">
	<path class="st2" d="M233.6,34.61c-24.79,0-44.89,20.1-44.89,44.89v33.67c0,3.1,2.51,5.61,5.61,5.61h78.56
		c3.1,0,5.61-2.51,5.61-5.61V79.5C278.48,54.71,258.39,34.61,233.6,34.61z"/>
	<path class="st1" d="M233.6,23.39c-3.1,0-5.61-2.51-5.61-5.61V6.55c0-3.1,2.51-5.61,5.61-5.61s5.61,2.51,5.61,5.61v11.22
		C239.21,20.87,236.69,23.39,233.6,23.39z"/>
	<path class="st1" d="M189.94,41.45c-1.49,0.01-2.92-0.58-3.98-1.63l-7.91-7.97c-2.02-2.35-1.74-5.9,0.61-7.91
		c2.1-1.8,5.2-1.8,7.3,0l7.97,7.91c2.2,2.18,2.21,5.73,0.03,7.94c-0.01,0.01-0.02,0.02-0.03,0.03
		C192.87,40.88,191.43,41.46,189.94,41.45z"/>
	<path class="st1" d="M171.87,85.11h-11.22c-3.1,0-5.61-2.51-5.61-5.61s2.51-5.61,5.61-5.61h11.22c3.1,0,5.61,2.51,5.61,5.61
		S174.97,85.11,171.87,85.11z"/>
	<path class="st1" d="M277.25,41.45c-1.49,0.01-2.92-0.58-3.98-1.63c-2.2-2.18-2.21-5.73-0.03-7.94c0.01-0.01,0.02-0.02,0.03-0.03
		l7.97-7.91c2.02-2.35,5.56-2.63,7.91-0.61c2.35,2.02,2.63,5.56,0.61,7.91c-0.19,0.22-0.39,0.42-0.61,0.61l-7.91,7.97
		C280.17,40.88,278.74,41.46,277.25,41.45z"/>
	<path class="st1" d="M306.54,85.11h-11.22c-3.1,0-5.61-2.51-5.61-5.61s2.51-5.61,5.61-5.61h11.22c3.1,0,5.61,2.51,5.61,5.61
		S309.64,85.11,306.54,85.11z"/>
	<path class="st1" d="M256.04,85.11c-3.1,0-5.61-2.51-5.61-5.61c0-9.3-7.54-16.83-16.83-16.83c-3.1,0-5.61-2.51-5.61-5.61
		c0-3.1,2.51-5.61,5.61-5.61c15.49,0,28.06,12.56,28.06,28.06C261.65,82.6,259.14,85.11,256.04,85.11z"/>
	<path class="st3" d="M183.1,107.55h101c6.2,0,11.22,5.02,11.22,11.22v16.83c0,6.2-5.02,11.22-11.22,11.22h-101
		c-6.2,0-11.22-5.02-11.22-11.22v-16.83C171.87,112.58,176.9,107.55,183.1,107.55z"/>
</g>
<g>
</g>
<g>
</g>
<g>
</g>
<g>
</g>
<g>
</g>
<g>
</g>
</svg>
